<svg xmlns="http://www.w3.org/2000/svg" width="285" height="79" viewBox="0 0 285 79" fill="none">
<path d="M103 66V26H111.8V40.88H113.4C113.72 39.36 116.68 26 128.12 26H130.92V34.72H128.44C115.64 34.72 111.8 44.08 111.8 57.44V66H103ZM139.662 47.68C140.142 55.44 144.702 60.56 151.262 60.56C156.142 60.56 160.142 57.6 161.502 53.2H170.702C168.382 61.2 160.862 66.8 151.422 66.8C139.502 66.8 130.542 57.76 130.542 46C130.542 34.16 139.662 25.2 151.262 25.2C162.782 25.2 171.742 34.08 171.742 45.84V47.68H139.662ZM151.502 31.44C145.582 31.44 141.262 35.36 139.982 41.6H162.302C161.102 35.6 157.582 31.44 151.502 31.44ZM174.491 66V8.32H183.291V66H174.491ZM188.088 66V26H196.888V66H188.088ZM187.528 19.52H197.448V10H187.528V19.52ZM201.684 66V26H210.484V40.88H212.084C213.924 33.36 218.644 25.2 227.364 25.2C235.444 25.2 241.044 32.16 241.044 42.16V66H232.244V45.04C232.244 36.88 229.364 32.4 224.404 32.4C216.724 32.4 210.484 42.72 210.484 57.04V66H201.684ZM245.828 66V8.4H254.628V40.48L269.588 26H280.708L261.428 44.08L262.388 45.36C263.428 44.88 264.468 44.64 265.588 44.64C269.748 44.64 273.748 47.84 276.468 53.44L282.468 66H273.428L269.268 57.04C266.548 51.12 263.028 47.92 259.668 47.92C258.308 47.92 256.948 48.48 255.588 49.52L254.628 50.4V66H245.828Z" fill="white"/>
<path d="M34.8945 35.1844V33.2932H37.829C38.4158 30.5051 43.8445 6 64.8257 6H69.961V21.9944H65.4126C41.9372 21.9944 34.8945 39.1626 34.8945 63.6678V36.9779V35.1844Z" fill="#FFF4ED"/>
<path d="M35.0647 37.304L35.8633 35.5105L35.0647 33.2932H32.1303C31.5434 30.5051 26.1147 6 5.13353 6H-0.00172389V21.9944H4.54664C28.0221 21.9944 35.0647 39.1626 35.0647 63.6678V38.9344V37.304Z" fill="#FFF4ED"/>
<path d="M32.1467 33.3916H37.8292C37.8292 44.1116 41.1151 54.574 47.2442 63.369L49.0776 65.9999H22.0156L23.3925 63.8063C29.1125 54.693 32.1467 44.1513 32.1467 33.3916Z" fill="#FFF4ED"/>
</svg>
